<mxfile host="app.diagrams.net" modified="2023-06-29T07:28:35.261Z" agent="Mozilla/5.0 (Windows NT 10.0; Win64; x64) AppleWebKit/537.36 (KHTML, like Gecko) Chrome/104.0.0.0 Safari/537.36" etag="ZlnUB7z2qzR8T3xG-fJU" version="21.5.1" type="device" pages="2">
  <diagram name="Page-1" id="YAETa0RxRtE5zhAvjQMX">
    <mxGraphModel dx="2091" dy="976" grid="1" gridSize="10" guides="1" tooltips="1" connect="1" arrows="1" fold="1" page="1" pageScale="1" pageWidth="850" pageHeight="1100" math="0" shadow="0">
      <root>
        <mxCell id="0" />
        <mxCell id="1" parent="0" />
        <mxCell id="jFR62P29gJN-i9rjxBf2-14" value="PURCHASE_ORDER_PROMOTION" style="shape=table;startSize=30;container=1;collapsible=1;childLayout=tableLayout;fixedRows=1;rowLines=0;fontStyle=1;align=center;resizeLast=1;html=1;fillColor=#d5e8d4;strokeColor=#82b366;" parent="1" vertex="1">
          <mxGeometry x="50" y="250" width="220" height="240" as="geometry" />
        </mxCell>
        <mxCell id="jFR62P29gJN-i9rjxBf2-15" value="" style="shape=tableRow;horizontal=0;startSize=0;swimlaneHead=0;swimlaneBody=0;fillColor=none;collapsible=0;dropTarget=0;points=[[0,0.5],[1,0.5]];portConstraint=eastwest;top=0;left=0;right=0;bottom=1;" parent="jFR62P29gJN-i9rjxBf2-14" vertex="1">
          <mxGeometry y="30" width="220" height="30" as="geometry" />
        </mxCell>
        <mxCell id="jFR62P29gJN-i9rjxBf2-16" value="PK" style="shape=partialRectangle;connectable=0;fillColor=none;top=0;left=0;bottom=0;right=0;fontStyle=1;overflow=hidden;whiteSpace=wrap;html=1;" parent="jFR62P29gJN-i9rjxBf2-15" vertex="1">
          <mxGeometry width="30" height="30" as="geometry">
            <mxRectangle width="30" height="30" as="alternateBounds" />
          </mxGeometry>
        </mxCell>
        <mxCell id="jFR62P29gJN-i9rjxBf2-17" value="PO_KEYSHOP_ID" style="shape=partialRectangle;connectable=0;fillColor=none;top=0;left=0;bottom=0;right=0;align=left;spacingLeft=6;fontStyle=5;overflow=hidden;whiteSpace=wrap;html=1;" parent="jFR62P29gJN-i9rjxBf2-15" vertex="1">
          <mxGeometry x="30" width="190" height="30" as="geometry">
            <mxRectangle width="190" height="30" as="alternateBounds" />
          </mxGeometry>
        </mxCell>
        <mxCell id="jFR62P29gJN-i9rjxBf2-18" value="" style="shape=tableRow;horizontal=0;startSize=0;swimlaneHead=0;swimlaneBody=0;fillColor=none;collapsible=0;dropTarget=0;points=[[0,0.5],[1,0.5]];portConstraint=eastwest;top=0;left=0;right=0;bottom=0;" parent="jFR62P29gJN-i9rjxBf2-14" vertex="1">
          <mxGeometry y="60" width="220" height="30" as="geometry" />
        </mxCell>
        <mxCell id="jFR62P29gJN-i9rjxBf2-19" value="FK" style="shape=partialRectangle;connectable=0;fillColor=none;top=0;left=0;bottom=0;right=0;editable=1;overflow=hidden;whiteSpace=wrap;html=1;" parent="jFR62P29gJN-i9rjxBf2-18" vertex="1">
          <mxGeometry width="30" height="30" as="geometry">
            <mxRectangle width="30" height="30" as="alternateBounds" />
          </mxGeometry>
        </mxCell>
        <mxCell id="jFR62P29gJN-i9rjxBf2-20" value="PO_ID" style="shape=partialRectangle;connectable=0;fillColor=none;top=0;left=0;bottom=0;right=0;align=left;spacingLeft=6;overflow=hidden;whiteSpace=wrap;html=1;" parent="jFR62P29gJN-i9rjxBf2-18" vertex="1">
          <mxGeometry x="30" width="190" height="30" as="geometry">
            <mxRectangle width="190" height="30" as="alternateBounds" />
          </mxGeometry>
        </mxCell>
        <mxCell id="jFR62P29gJN-i9rjxBf2-21" value="" style="shape=tableRow;horizontal=0;startSize=0;swimlaneHead=0;swimlaneBody=0;fillColor=none;collapsible=0;dropTarget=0;points=[[0,0.5],[1,0.5]];portConstraint=eastwest;top=0;left=0;right=0;bottom=0;" parent="jFR62P29gJN-i9rjxBf2-14" vertex="1">
          <mxGeometry y="90" width="220" height="30" as="geometry" />
        </mxCell>
        <mxCell id="jFR62P29gJN-i9rjxBf2-22" value="" style="shape=partialRectangle;connectable=0;fillColor=none;top=0;left=0;bottom=0;right=0;editable=1;overflow=hidden;whiteSpace=wrap;html=1;" parent="jFR62P29gJN-i9rjxBf2-21" vertex="1">
          <mxGeometry width="30" height="30" as="geometry">
            <mxRectangle width="30" height="30" as="alternateBounds" />
          </mxGeometry>
        </mxCell>
        <mxCell id="jFR62P29gJN-i9rjxBf2-23" value="KS_ID" style="shape=partialRectangle;connectable=0;fillColor=none;top=0;left=0;bottom=0;right=0;align=left;spacingLeft=6;overflow=hidden;whiteSpace=wrap;html=1;" parent="jFR62P29gJN-i9rjxBf2-21" vertex="1">
          <mxGeometry x="30" width="190" height="30" as="geometry">
            <mxRectangle width="190" height="30" as="alternateBounds" />
          </mxGeometry>
        </mxCell>
        <mxCell id="jFR62P29gJN-i9rjxBf2-24" value="" style="shape=tableRow;horizontal=0;startSize=0;swimlaneHead=0;swimlaneBody=0;fillColor=none;collapsible=0;dropTarget=0;points=[[0,0.5],[1,0.5]];portConstraint=eastwest;top=0;left=0;right=0;bottom=0;" parent="jFR62P29gJN-i9rjxBf2-14" vertex="1">
          <mxGeometry y="120" width="220" height="30" as="geometry" />
        </mxCell>
        <mxCell id="jFR62P29gJN-i9rjxBf2-25" value="" style="shape=partialRectangle;connectable=0;fillColor=none;top=0;left=0;bottom=0;right=0;editable=1;overflow=hidden;whiteSpace=wrap;html=1;" parent="jFR62P29gJN-i9rjxBf2-24" vertex="1">
          <mxGeometry width="30" height="30" as="geometry">
            <mxRectangle width="30" height="30" as="alternateBounds" />
          </mxGeometry>
        </mxCell>
        <mxCell id="jFR62P29gJN-i9rjxBf2-26" value="KS_LEVEL" style="shape=partialRectangle;connectable=0;fillColor=none;top=0;left=0;bottom=0;right=0;align=left;spacingLeft=6;overflow=hidden;whiteSpace=wrap;html=1;" parent="jFR62P29gJN-i9rjxBf2-24" vertex="1">
          <mxGeometry x="30" width="190" height="30" as="geometry">
            <mxRectangle width="190" height="30" as="alternateBounds" />
          </mxGeometry>
        </mxCell>
        <mxCell id="jFR62P29gJN-i9rjxBf2-31" value="CUSTOMER_ID" style="shape=partialRectangle;connectable=0;fillColor=none;top=0;left=0;bottom=0;right=0;align=left;spacingLeft=6;overflow=hidden;whiteSpace=wrap;html=1;" parent="1" vertex="1">
          <mxGeometry x="80" y="400" width="170" height="30" as="geometry">
            <mxRectangle width="170" height="30" as="alternateBounds" />
          </mxGeometry>
        </mxCell>
        <mxCell id="jFR62P29gJN-i9rjxBf2-32" value="KS_LEVEL" style="shape=partialRectangle;connectable=0;fillColor=none;top=0;left=0;bottom=0;right=0;align=left;spacingLeft=6;overflow=hidden;whiteSpace=wrap;html=1;" parent="1" vertex="1">
          <mxGeometry x="80" y="430" width="170" height="30" as="geometry">
            <mxRectangle width="170" height="30" as="alternateBounds" />
          </mxGeometry>
        </mxCell>
        <mxCell id="jFR62P29gJN-i9rjxBf2-33" value="PURCHASE_ORDER_PROMOTION_GIVEAWAY" style="shape=table;startSize=30;container=1;collapsible=1;childLayout=tableLayout;fixedRows=1;rowLines=0;fontStyle=1;align=center;resizeLast=1;html=1;" parent="1" vertex="1">
          <mxGeometry x="360" y="250" width="290" height="240" as="geometry" />
        </mxCell>
        <mxCell id="jFR62P29gJN-i9rjxBf2-34" value="" style="shape=tableRow;horizontal=0;startSize=0;swimlaneHead=0;swimlaneBody=0;fillColor=none;collapsible=0;dropTarget=0;points=[[0,0.5],[1,0.5]];portConstraint=eastwest;top=0;left=0;right=0;bottom=1;" parent="jFR62P29gJN-i9rjxBf2-33" vertex="1">
          <mxGeometry y="30" width="290" height="30" as="geometry" />
        </mxCell>
        <mxCell id="jFR62P29gJN-i9rjxBf2-35" value="PK" style="shape=partialRectangle;connectable=0;fillColor=none;top=0;left=0;bottom=0;right=0;fontStyle=1;overflow=hidden;whiteSpace=wrap;html=1;" parent="jFR62P29gJN-i9rjxBf2-34" vertex="1">
          <mxGeometry width="30" height="30" as="geometry">
            <mxRectangle width="30" height="30" as="alternateBounds" />
          </mxGeometry>
        </mxCell>
        <mxCell id="jFR62P29gJN-i9rjxBf2-36" value="PO_PROMOTION_GIVEAWAY_ID" style="shape=partialRectangle;connectable=0;fillColor=none;top=0;left=0;bottom=0;right=0;align=left;spacingLeft=6;fontStyle=5;overflow=hidden;whiteSpace=wrap;html=1;" parent="jFR62P29gJN-i9rjxBf2-34" vertex="1">
          <mxGeometry x="30" width="260" height="30" as="geometry">
            <mxRectangle width="260" height="30" as="alternateBounds" />
          </mxGeometry>
        </mxCell>
        <mxCell id="jFR62P29gJN-i9rjxBf2-37" value="" style="shape=tableRow;horizontal=0;startSize=0;swimlaneHead=0;swimlaneBody=0;fillColor=none;collapsible=0;dropTarget=0;points=[[0,0.5],[1,0.5]];portConstraint=eastwest;top=0;left=0;right=0;bottom=0;" parent="jFR62P29gJN-i9rjxBf2-33" vertex="1">
          <mxGeometry y="60" width="290" height="30" as="geometry" />
        </mxCell>
        <mxCell id="jFR62P29gJN-i9rjxBf2-38" value="FK" style="shape=partialRectangle;connectable=0;fillColor=none;top=0;left=0;bottom=0;right=0;editable=1;overflow=hidden;whiteSpace=wrap;html=1;" parent="jFR62P29gJN-i9rjxBf2-37" vertex="1">
          <mxGeometry width="30" height="30" as="geometry">
            <mxRectangle width="30" height="30" as="alternateBounds" />
          </mxGeometry>
        </mxCell>
        <mxCell id="jFR62P29gJN-i9rjxBf2-39" value="PO_ID" style="shape=partialRectangle;connectable=0;fillColor=none;top=0;left=0;bottom=0;right=0;align=left;spacingLeft=6;overflow=hidden;whiteSpace=wrap;html=1;" parent="jFR62P29gJN-i9rjxBf2-37" vertex="1">
          <mxGeometry x="30" width="260" height="30" as="geometry">
            <mxRectangle width="260" height="30" as="alternateBounds" />
          </mxGeometry>
        </mxCell>
        <mxCell id="jFR62P29gJN-i9rjxBf2-40" value="" style="shape=tableRow;horizontal=0;startSize=0;swimlaneHead=0;swimlaneBody=0;fillColor=none;collapsible=0;dropTarget=0;points=[[0,0.5],[1,0.5]];portConstraint=eastwest;top=0;left=0;right=0;bottom=0;" parent="jFR62P29gJN-i9rjxBf2-33" vertex="1">
          <mxGeometry y="90" width="290" height="30" as="geometry" />
        </mxCell>
        <mxCell id="jFR62P29gJN-i9rjxBf2-41" value="" style="shape=partialRectangle;connectable=0;fillColor=none;top=0;left=0;bottom=0;right=0;editable=1;overflow=hidden;whiteSpace=wrap;html=1;" parent="jFR62P29gJN-i9rjxBf2-40" vertex="1">
          <mxGeometry width="30" height="30" as="geometry">
            <mxRectangle width="30" height="30" as="alternateBounds" />
          </mxGeometry>
        </mxCell>
        <mxCell id="jFR62P29gJN-i9rjxBf2-42" value="KS_ID" style="shape=partialRectangle;connectable=0;fillColor=none;top=0;left=0;bottom=0;right=0;align=left;spacingLeft=6;overflow=hidden;whiteSpace=wrap;html=1;" parent="jFR62P29gJN-i9rjxBf2-40" vertex="1">
          <mxGeometry x="30" width="260" height="30" as="geometry">
            <mxRectangle width="260" height="30" as="alternateBounds" />
          </mxGeometry>
        </mxCell>
        <mxCell id="jFR62P29gJN-i9rjxBf2-43" value="" style="shape=tableRow;horizontal=0;startSize=0;swimlaneHead=0;swimlaneBody=0;fillColor=none;collapsible=0;dropTarget=0;points=[[0,0.5],[1,0.5]];portConstraint=eastwest;top=0;left=0;right=0;bottom=0;" parent="jFR62P29gJN-i9rjxBf2-33" vertex="1">
          <mxGeometry y="120" width="290" height="30" as="geometry" />
        </mxCell>
        <mxCell id="jFR62P29gJN-i9rjxBf2-44" value="" style="shape=partialRectangle;connectable=0;fillColor=none;top=0;left=0;bottom=0;right=0;editable=1;overflow=hidden;whiteSpace=wrap;html=1;" parent="jFR62P29gJN-i9rjxBf2-43" vertex="1">
          <mxGeometry width="30" height="30" as="geometry">
            <mxRectangle width="30" height="30" as="alternateBounds" />
          </mxGeometry>
        </mxCell>
        <mxCell id="jFR62P29gJN-i9rjxBf2-45" value="KS_LEVEL" style="shape=partialRectangle;connectable=0;fillColor=none;top=0;left=0;bottom=0;right=0;align=left;spacingLeft=6;overflow=hidden;whiteSpace=wrap;html=1;" parent="jFR62P29gJN-i9rjxBf2-43" vertex="1">
          <mxGeometry x="30" width="260" height="30" as="geometry">
            <mxRectangle width="260" height="30" as="alternateBounds" />
          </mxGeometry>
        </mxCell>
        <mxCell id="jFR62P29gJN-i9rjxBf2-64" value="PROMOTION_DISTRIBUTION_UNIT_MAP" style="swimlane;fontStyle=0;childLayout=stackLayout;horizontal=1;startSize=30;horizontalStack=0;resizeParent=1;resizeParentMax=0;resizeLast=0;collapsible=1;marginBottom=0;whiteSpace=wrap;html=1;" parent="1" vertex="1">
          <mxGeometry x="40" y="600" width="270" height="390" as="geometry" />
        </mxCell>
        <mxCell id="jFR62P29gJN-i9rjxBf2-67" value="&lt;div&gt;PROMOTION_DISTRIBUTION_UNIT_MAP_ID&lt;/div&gt;&lt;div&gt;PROMOTION_PROGRAM_ID&lt;/div&gt;&lt;div&gt;SHOP_ID&lt;/div&gt;&lt;div&gt;QUANTITY_MAX&lt;/div&gt;&lt;div&gt;QUANTITY_RECEIVED&lt;/div&gt;&lt;div&gt;STATUS&lt;/div&gt;&lt;div&gt;QUANTITY_CUSTOMER&lt;/div&gt;&lt;div&gt;SYN_ACTION&lt;/div&gt;&lt;div&gt;FROM_DATE&lt;/div&gt;&lt;div&gt;TO_DATE&lt;/div&gt;&lt;div&gt;IS_QUANTITY_MAX_EDIT&lt;/div&gt;&lt;div&gt;AMOUNT_MAX&lt;/div&gt;&lt;div&gt;AMOUNT_RECEIVED&lt;/div&gt;&lt;div&gt;NUM_MAX&lt;/div&gt;&lt;div&gt;NUM_RECEIVED&lt;/div&gt;&lt;div&gt;QUANTITY_RECEIVED_TOTAL&lt;/div&gt;&lt;div&gt;AMOUNT_RECEIVED_TOTAL&lt;/div&gt;&lt;div&gt;NUM_RECEIVED_TOTAL&lt;/div&gt;&lt;div&gt;NUM_ORDER_RECEIVED&lt;/div&gt;&lt;div&gt;NUM_ORDER_RECEIVED_TOTAL&lt;/div&gt;&lt;div&gt;&lt;div style=&quot;border-color: var(--border-color);&quot;&gt;CREATE_DATE&lt;/div&gt;&lt;div style=&quot;border-color: var(--border-color);&quot;&gt;CREATE_USER&lt;/div&gt;&lt;div style=&quot;border-color: var(--border-color);&quot;&gt;UPDATE_DATE&lt;/div&gt;&lt;div style=&quot;border-color: var(--border-color);&quot;&gt;UPDATE_USER&lt;/div&gt;&lt;/div&gt;" style="text;strokeColor=none;fillColor=none;align=left;verticalAlign=middle;spacingLeft=4;spacingRight=4;overflow=hidden;points=[[0,0.5],[1,0.5]];portConstraint=eastwest;rotatable=0;whiteSpace=wrap;html=1;" parent="jFR62P29gJN-i9rjxBf2-64" vertex="1">
          <mxGeometry y="30" width="270" height="360" as="geometry" />
        </mxCell>
        <mxCell id="jFR62P29gJN-i9rjxBf2-68" value="PROMOTION_STAFF_MAP" style="swimlane;fontStyle=0;childLayout=stackLayout;horizontal=1;startSize=30;horizontalStack=0;resizeParent=1;resizeParentMax=0;resizeLast=0;collapsible=1;marginBottom=0;whiteSpace=wrap;html=1;" parent="1" vertex="1">
          <mxGeometry x="425" y="635" width="280" height="330" as="geometry" />
        </mxCell>
        <mxCell id="jFR62P29gJN-i9rjxBf2-69" value="&lt;div&gt;PROMOTION_STAFF_MAP_ID&lt;/div&gt;&lt;div&gt;PROMOTION_DISTRIBUBTION_UNIT_MAP_ID&lt;/div&gt;&lt;div&gt;SHOP_ID&lt;/div&gt;&lt;div&gt;STAFF_ID&lt;/div&gt;&lt;div&gt;QUANTITY_MAX&lt;/div&gt;&lt;div&gt;QUANTITY_RECEIVED&lt;/div&gt;&lt;div&gt;STATUS&lt;/div&gt;&lt;div&gt;AMOUNT_MAX&lt;/div&gt;&lt;div&gt;AMOUNT_RECEIVED&lt;/div&gt;&lt;div&gt;NUM_MAX&lt;/div&gt;&lt;div&gt;NUM_RECEIVED&lt;/div&gt;&lt;div&gt;QUANTITY_RECEIVED_TOTAL&lt;/div&gt;&lt;div&gt;AMOUNT_RECEIVED_TOTAL&lt;/div&gt;&lt;div&gt;NUM_RECEIVED_TOTAL&lt;/div&gt;&lt;div&gt;NUM_ORDER_RECEIVED&lt;/div&gt;&lt;div&gt;NUM_ORDER_RECEIVED_TOTAL&lt;/div&gt;&lt;div&gt;&lt;div style=&quot;border-color: var(--border-color);&quot;&gt;CREATE_DATE&lt;/div&gt;&lt;div style=&quot;border-color: var(--border-color);&quot;&gt;CREATE_USER&lt;/div&gt;&lt;div style=&quot;border-color: var(--border-color);&quot;&gt;UPDATE_DATE&lt;/div&gt;&lt;div style=&quot;border-color: var(--border-color);&quot;&gt;UPDATE_USER&lt;/div&gt;&lt;/div&gt;" style="text;strokeColor=none;fillColor=none;align=left;verticalAlign=middle;spacingLeft=4;spacingRight=4;overflow=hidden;points=[[0,0.5],[1,0.5]];portConstraint=eastwest;rotatable=0;whiteSpace=wrap;html=1;" parent="jFR62P29gJN-i9rjxBf2-68" vertex="1">
          <mxGeometry y="30" width="280" height="300" as="geometry" />
        </mxCell>
        <mxCell id="jFR62P29gJN-i9rjxBf2-70" value="PROMOTION_CUSTOMER_MAP" style="swimlane;fontStyle=0;childLayout=stackLayout;horizontal=1;startSize=30;horizontalStack=0;resizeParent=1;resizeParentMax=0;resizeLast=0;collapsible=1;marginBottom=0;whiteSpace=wrap;html=1;" parent="1" vertex="1">
          <mxGeometry x="830" y="605" width="220" height="360" as="geometry" />
        </mxCell>
        <mxCell id="jFR62P29gJN-i9rjxBf2-71" value="&lt;div&gt;PROMOTION_CUSTOMER_MAP_ID&lt;/div&gt;&lt;div&gt;PROMOTION_SHOP_MAP_ID&lt;/div&gt;&lt;div&gt;SHOP_ID&lt;/div&gt;&lt;div&gt;CUSTOMER_ID&lt;/div&gt;&lt;div&gt;QUANTITY_MAX&lt;/div&gt;&lt;div&gt;QUANTITY_RECEIVED&lt;/div&gt;&lt;div&gt;STATUS&lt;/div&gt;&lt;div&gt;AMOUNT_MAX&lt;/div&gt;&lt;div&gt;AMOUNT_RECEIVED&lt;/div&gt;&lt;div&gt;NUM_MAX&lt;/div&gt;&lt;div&gt;NUM_RECEIVED&lt;/div&gt;&lt;div&gt;QUANTITY_RECEIVED_TOTAL&lt;/div&gt;&lt;div&gt;AMOUNT_RECEIVED_TOTAL&lt;/div&gt;&lt;div&gt;NUM_RECEIVED_TOTAL&lt;/div&gt;&lt;div&gt;NUM_ORDER_RECEIVED&lt;/div&gt;&lt;div&gt;NUM_ORDER_RECEIVED_TOTAL&lt;/div&gt;&lt;div&gt;VIRTUAL_FLAG&lt;/div&gt;&lt;div&gt;EXCEPT_SALE_ORDER_ID&lt;/div&gt;&lt;div&gt;&lt;div style=&quot;border-color: var(--border-color);&quot;&gt;CREATE_DATE&lt;/div&gt;&lt;div style=&quot;border-color: var(--border-color);&quot;&gt;CREATE_USER&lt;/div&gt;&lt;div style=&quot;border-color: var(--border-color);&quot;&gt;UPDATE_DATE&lt;/div&gt;&lt;div style=&quot;border-color: var(--border-color);&quot;&gt;UPDATE_USER&lt;/div&gt;&lt;/div&gt;" style="text;strokeColor=none;fillColor=none;align=left;verticalAlign=middle;spacingLeft=4;spacingRight=4;overflow=hidden;points=[[0,0.5],[1,0.5]];portConstraint=eastwest;rotatable=0;whiteSpace=wrap;html=1;" parent="jFR62P29gJN-i9rjxBf2-70" vertex="1">
          <mxGeometry y="30" width="220" height="330" as="geometry" />
        </mxCell>
        <mxCell id="jFR62P29gJN-i9rjxBf2-72" value="SALE_ORDER_PROMOTION_MAP" style="swimlane;fontStyle=0;childLayout=stackLayout;horizontal=1;startSize=30;horizontalStack=0;resizeParent=1;resizeParentMax=0;resizeLast=0;collapsible=1;marginBottom=0;whiteSpace=wrap;html=1;" parent="1" vertex="1">
          <mxGeometry x="320" y="1060" width="210" height="230" as="geometry" />
        </mxCell>
        <mxCell id="jFR62P29gJN-i9rjxBf2-73" value="&lt;div&gt;SALE_PROMO_MAP_ID&lt;/div&gt;&lt;div&gt;SALE_ORDER_ID&lt;/div&gt;&lt;div&gt;ORDER_DATE&lt;/div&gt;&lt;div&gt;STAFF_ID&lt;/div&gt;&lt;div&gt;SALE_ORDER_DETAIL_ID&lt;/div&gt;&lt;div&gt;PROGRAM_CODE&lt;/div&gt;&lt;div&gt;PRODUCT_GROUP_ID&lt;/div&gt;&lt;div&gt;GROUP_LEVEL_ID&lt;/div&gt;&lt;div&gt;STATUS&lt;/div&gt;&lt;div&gt;AMOUNT&lt;/div&gt;&lt;div&gt;QUANTITY_PACKAGE&lt;/div&gt;&lt;div&gt;QUANTITY_RETAIL&lt;/div&gt;&lt;div&gt;QUANTITY&lt;/div&gt;" style="text;strokeColor=none;fillColor=none;align=left;verticalAlign=middle;spacingLeft=4;spacingRight=4;overflow=hidden;points=[[0,0.5],[1,0.5]];portConstraint=eastwest;rotatable=0;whiteSpace=wrap;html=1;" parent="jFR62P29gJN-i9rjxBf2-72" vertex="1">
          <mxGeometry y="30" width="210" height="200" as="geometry" />
        </mxCell>
        <mxCell id="jFR62P29gJN-i9rjxBf2-75" value="SHOP &amp;lt;&amp;gt; DISTRIBUTION_UNIT" style="whiteSpace=wrap;html=1;shape=mxgraph.basic.document" parent="1" vertex="1">
          <mxGeometry x="425" y="560" width="200" height="30" as="geometry" />
        </mxCell>
        <mxCell id="jFR62P29gJN-i9rjxBf2-76" value="SALE_ORDER_PROMOTION" style="swimlane;fontStyle=0;childLayout=stackLayout;horizontal=1;startSize=30;horizontalStack=0;resizeParent=1;resizeParentMax=0;resizeLast=0;collapsible=1;marginBottom=0;whiteSpace=wrap;html=1;" parent="1" vertex="1">
          <mxGeometry x="40" y="1080" width="200" height="370" as="geometry" />
        </mxCell>
        <mxCell id="jFR62P29gJN-i9rjxBf2-77" value="&lt;div&gt;SALE_ORDER_PROMOTION_ID&lt;/div&gt;&lt;div&gt;SALE_ORDER_ID&lt;/div&gt;&lt;div&gt;SHOP_ID&lt;/div&gt;&lt;div&gt;STAFF_ID&lt;/div&gt;&lt;div&gt;ORDER_DATE&lt;/div&gt;&lt;div&gt;PROMOTION_PROGRAM_ID&lt;/div&gt;&lt;div&gt;PROMOTION_PROGRAM_CODE&lt;/div&gt;&lt;div&gt;PRODUCT_GROUP_ID&lt;/div&gt;&lt;div&gt;GROUP_LEVEL_ID&lt;/div&gt;&lt;div&gt;PROMOTION_LEVEL&lt;/div&gt;&lt;div&gt;QUANTITY_RECEIVED&lt;/div&gt;&lt;div&gt;QUANTITY_RECEIVED_MAX&lt;/div&gt;&lt;div&gt;CREATE_DATE&lt;/div&gt;&lt;div&gt;UPDATE_DATE&lt;/div&gt;&lt;div&gt;CREATE_USER&lt;/div&gt;&lt;div&gt;UPDATE_USER&lt;/div&gt;&lt;div&gt;PROMOTION_DETAIL&lt;/div&gt;&lt;div&gt;EXCEED_OBJECT&lt;/div&gt;&lt;div&gt;EXCEED_UNIT&lt;/div&gt;&lt;div&gt;AMOUNT_RECEIVED&lt;/div&gt;&lt;div&gt;NUM_RECEIVED&lt;/div&gt;&lt;div&gt;AMOUNT_RECEIVED_MAX&lt;/div&gt;&lt;div&gt;NUM_RECEIVED_MAX&lt;/div&gt;" style="text;strokeColor=none;fillColor=none;align=left;verticalAlign=middle;spacingLeft=4;spacingRight=4;overflow=hidden;points=[[0,0.5],[1,0.5]];portConstraint=eastwest;rotatable=0;whiteSpace=wrap;html=1;" parent="jFR62P29gJN-i9rjxBf2-76" vertex="1">
          <mxGeometry y="30" width="200" height="340" as="geometry" />
        </mxCell>
        <mxCell id="jFR62P29gJN-i9rjxBf2-78" value="SALE_ORDER_PROMOTION_DETAIL" style="swimlane;fontStyle=0;childLayout=stackLayout;horizontal=1;startSize=30;horizontalStack=0;resizeParent=1;resizeParentMax=0;resizeLast=0;collapsible=1;marginBottom=0;whiteSpace=wrap;html=1;" parent="1" vertex="1">
          <mxGeometry x="640" y="1100" width="230" height="260" as="geometry" />
        </mxCell>
        <mxCell id="jFR62P29gJN-i9rjxBf2-79" value="&lt;div&gt;SALE_ORDER_PROMO_DETAIL_ID&lt;/div&gt;&lt;div&gt;SALE_ORDER_ID&lt;/div&gt;&lt;div&gt;SALE_ORDER_DETAIL_ID&lt;/div&gt;&lt;div&gt;SHOP_ID&lt;/div&gt;&lt;div&gt;STAFF_ID&lt;/div&gt;&lt;div&gt;ORDER_DATE&lt;/div&gt;&lt;div&gt;PROGRAM_TYPE&lt;/div&gt;&lt;div&gt;PROGRAM_CODE&lt;/div&gt;&lt;div&gt;PROGRAME_TYPE_CODE&lt;/div&gt;&lt;div&gt;DISCOUNT_PERCENT&lt;/div&gt;&lt;div&gt;DISCOUNT_AMOUNT&lt;/div&gt;&lt;div&gt;PRODUCT_GROUP_ID&lt;/div&gt;&lt;div&gt;GROUP_LEVEL_ID&lt;/div&gt;&lt;div&gt;MAX_AMOUNT_FREE&lt;/div&gt;&lt;div&gt;IS_OWNER&lt;/div&gt;" style="text;strokeColor=none;fillColor=none;align=left;verticalAlign=middle;spacingLeft=4;spacingRight=4;overflow=hidden;points=[[0,0.5],[1,0.5]];portConstraint=eastwest;rotatable=0;whiteSpace=wrap;html=1;" parent="jFR62P29gJN-i9rjxBf2-78" vertex="1">
          <mxGeometry y="30" width="230" height="230" as="geometry" />
        </mxCell>
        <mxCell id="jFR62P29gJN-i9rjxBf2-80" value="PO_CUSTOMER_PROMOTION" style="swimlane;fontStyle=0;childLayout=stackLayout;horizontal=1;startSize=30;horizontalStack=0;resizeParent=1;resizeParentMax=0;resizeLast=0;collapsible=1;marginBottom=0;whiteSpace=wrap;html=1;" parent="1" vertex="1">
          <mxGeometry x="970" y="1110" width="210" height="380" as="geometry" />
        </mxCell>
        <mxCell id="jFR62P29gJN-i9rjxBf2-81" value="&lt;div&gt;PO_CUSTOMER_PROMOTION_ID&lt;/div&gt;&lt;div&gt;PO_CUSTOMER_ID&lt;/div&gt;&lt;div&gt;SHOP_ID&lt;/div&gt;&lt;div&gt;STAFF_ID&lt;/div&gt;&lt;div&gt;ORDER_DATE&lt;/div&gt;&lt;div&gt;PROMOTION_PROGRAM_CODE&lt;/div&gt;&lt;div&gt;PRODUCT_GROUP_ID&lt;/div&gt;&lt;div&gt;PROMOTION_LEVEL&lt;/div&gt;&lt;div&gt;QUANTITY_RECEIVED&lt;/div&gt;&lt;div&gt;CREATE_DATE&lt;/div&gt;&lt;div&gt;UPDATE_DATE&lt;/div&gt;&lt;div&gt;CREATE_USER&lt;/div&gt;&lt;div&gt;UPDATE_USER&lt;/div&gt;&lt;div&gt;GROUP_LEVEL_ID&lt;/div&gt;&lt;div&gt;PROMOTION_PROGRAM_ID&lt;/div&gt;&lt;div&gt;QUANTITY_RECEIVED_MAX&lt;/div&gt;&lt;div&gt;PROMOTION_DETAIL&lt;/div&gt;&lt;div&gt;EXCEED_OBJECT&lt;/div&gt;&lt;div&gt;EXCEED_UNIT&lt;/div&gt;&lt;div&gt;AMOUNT_RECEIVED&lt;/div&gt;&lt;div&gt;NUM_RECEIVED&lt;/div&gt;&lt;div&gt;AMOUNT_RECEIVED_MAX&lt;/div&gt;&lt;div&gt;NUM_RECEIVED_MAX&lt;/div&gt;" style="text;strokeColor=none;fillColor=none;align=left;verticalAlign=middle;spacingLeft=4;spacingRight=4;overflow=hidden;points=[[0,0.5],[1,0.5]];portConstraint=eastwest;rotatable=0;whiteSpace=wrap;html=1;" parent="jFR62P29gJN-i9rjxBf2-80" vertex="1">
          <mxGeometry y="30" width="210" height="350" as="geometry" />
        </mxCell>
        <mxCell id="jFR62P29gJN-i9rjxBf2-82" value="PO_CUSTOMER_PROMO_MAP" style="swimlane;fontStyle=0;childLayout=stackLayout;horizontal=1;startSize=30;horizontalStack=0;resizeParent=1;resizeParentMax=0;resizeLast=0;collapsible=1;marginBottom=0;whiteSpace=wrap;html=1;" parent="1" vertex="1">
          <mxGeometry x="40" y="1535" width="210" height="230" as="geometry" />
        </mxCell>
        <mxCell id="jFR62P29gJN-i9rjxBf2-83" value="&lt;div&gt;PO_CUSTOMER_PROMO_MAP_ID&lt;/div&gt;&lt;div&gt;PO_CUSTOMER_ID&lt;/div&gt;&lt;div&gt;ORDER_DATE&lt;/div&gt;&lt;div&gt;STAFF_ID&lt;/div&gt;&lt;div&gt;PO_CUSTOMER_DETAIL_ID&lt;/div&gt;&lt;div&gt;PROGRAM_CODE&lt;/div&gt;&lt;div&gt;PRODUCT_GROUP_ID&lt;/div&gt;&lt;div&gt;GROUP_LEVEL_ID&lt;/div&gt;&lt;div&gt;STATUS&lt;/div&gt;&lt;div&gt;AMOUNT&lt;/div&gt;&lt;div&gt;QUANTITY_PACKAGE&lt;/div&gt;&lt;div&gt;QUANTITY_RETAIL&lt;/div&gt;&lt;div&gt;QUANTITY&lt;/div&gt;" style="text;strokeColor=none;fillColor=none;align=left;verticalAlign=middle;spacingLeft=4;spacingRight=4;overflow=hidden;points=[[0,0.5],[1,0.5]];portConstraint=eastwest;rotatable=0;whiteSpace=wrap;html=1;" parent="jFR62P29gJN-i9rjxBf2-82" vertex="1">
          <mxGeometry y="30" width="210" height="200" as="geometry" />
        </mxCell>
        <mxCell id="jFR62P29gJN-i9rjxBf2-84" value="PO_CUSTOMER_PROMO_LOT" style="swimlane;fontStyle=0;childLayout=stackLayout;horizontal=1;startSize=30;horizontalStack=0;resizeParent=1;resizeParentMax=0;resizeLast=0;collapsible=1;marginBottom=0;whiteSpace=wrap;html=1;" parent="1" vertex="1">
          <mxGeometry x="320" y="1480" width="210" height="250" as="geometry" />
        </mxCell>
        <mxCell id="jFR62P29gJN-i9rjxBf2-85" value="&lt;div&gt;PO_CUSTOMER_PROMO_LOT_ID&lt;/div&gt;&lt;div&gt;PO_CUSTOMER_ID&lt;/div&gt;&lt;div&gt;PO_CUSTOMER_DETAIL_ID&lt;/div&gt;&lt;div&gt;SHOP_ID&lt;/div&gt;&lt;div&gt;STAFF_ID&lt;/div&gt;&lt;div&gt;ORDER_DATE&lt;/div&gt;&lt;div&gt;PROGRAM_TYPE&lt;/div&gt;&lt;div&gt;PROGRAM_CODE&lt;/div&gt;&lt;div&gt;PROGRAME_TYPE_CODE&lt;/div&gt;&lt;div&gt;DISCOUNT_PERCENT&lt;/div&gt;&lt;div&gt;DISCOUNT_AMOUNT&lt;/div&gt;&lt;div&gt;DISCOUNT_COMPUTE_AMOUNT&lt;/div&gt;&lt;div&gt;IS_OWNER&lt;/div&gt;&lt;div&gt;PO_CUSTOMER_LOT_ID&lt;/div&gt;" style="text;strokeColor=none;fillColor=none;align=left;verticalAlign=middle;spacingLeft=4;spacingRight=4;overflow=hidden;points=[[0,0.5],[1,0.5]];portConstraint=eastwest;rotatable=0;whiteSpace=wrap;html=1;" parent="jFR62P29gJN-i9rjxBf2-84" vertex="1">
          <mxGeometry y="30" width="210" height="220" as="geometry" />
        </mxCell>
        <mxCell id="jFR62P29gJN-i9rjxBf2-86" value="PO_CUSTOMER_PROMO_DETAIL" style="swimlane;fontStyle=0;childLayout=stackLayout;horizontal=1;startSize=30;horizontalStack=0;resizeParent=1;resizeParentMax=0;resizeLast=0;collapsible=1;marginBottom=0;whiteSpace=wrap;html=1;" parent="1" vertex="1">
          <mxGeometry x="600" y="1440" width="230" height="270" as="geometry" />
        </mxCell>
        <mxCell id="jFR62P29gJN-i9rjxBf2-87" value="&lt;div&gt;PO_CUSTOMER_PROMO_DETAIL_ID&lt;/div&gt;&lt;div&gt;PROGRAM_TYPE&lt;/div&gt;&lt;div&gt;PROGRAM_CODE&lt;/div&gt;&lt;div&gt;DISCOUNT_PERCENT&lt;/div&gt;&lt;div&gt;DISCOUNT_AMOUNT&lt;/div&gt;&lt;div&gt;MAX_AMOUNT_FREE&lt;/div&gt;&lt;div&gt;IS_OWNER&lt;/div&gt;&lt;div&gt;STAFF_ID&lt;/div&gt;&lt;div&gt;PROGRAME_TYPE_CODE&lt;/div&gt;&lt;div&gt;PO_CUSTOMER_ID&lt;/div&gt;&lt;div&gt;PO_CUSTOMER_DETAIL_ID&lt;/div&gt;&lt;div&gt;SHOP_ID&lt;/div&gt;&lt;div&gt;ORDER_DATE&lt;/div&gt;&lt;div&gt;PRODUCT_GROUP_ID&lt;/div&gt;&lt;div&gt;GROUP_LEVEL_ID&lt;/div&gt;&lt;div&gt;STATUS&lt;/div&gt;" style="text;strokeColor=none;fillColor=none;align=left;verticalAlign=middle;spacingLeft=4;spacingRight=4;overflow=hidden;points=[[0,0.5],[1,0.5]];portConstraint=eastwest;rotatable=0;whiteSpace=wrap;html=1;" parent="jFR62P29gJN-i9rjxBf2-86" vertex="1">
          <mxGeometry y="30" width="230" height="240" as="geometry" />
        </mxCell>
      </root>
    </mxGraphModel>
  </diagram>
  <diagram id="rO0FgRzFxx0T18h3Yygx" name="Page-2">
    <mxGraphModel dx="1917" dy="948" grid="1" gridSize="10" guides="1" tooltips="1" connect="1" arrows="1" fold="1" page="1" pageScale="1" pageWidth="850" pageHeight="1100" math="0" shadow="0">
      <root>
        <mxCell id="0" />
        <mxCell id="1" parent="0" />
        <mxCell id="ZILnqPvVfEJ9x1n6Lq8S-1" value="&lt;table style=&quot;border-collapse:&lt;br/&gt; collapse;width:48pt&quot; width=&quot;64&quot; cellspacing=&quot;0&quot; cellpadding=&quot;0&quot; border=&quot;0&quot;&gt;&lt;tbody&gt;&lt;tr style=&quot;height:14.4pt&quot; height=&quot;19&quot;&gt;&lt;br/&gt;  &lt;td style=&quot;height:14.4pt;width:48pt&quot; width=&quot;64&quot; height=&quot;19&quot;&gt;SALE_ORDER_PROMOTION&lt;/td&gt;&lt;/tr&gt;&lt;/tbody&gt;&lt;/table&gt;" style="swimlane;fontStyle=0;childLayout=stackLayout;horizontal=1;startSize=30;horizontalStack=0;resizeParent=1;resizeParentMax=0;resizeLast=0;collapsible=1;marginBottom=0;whiteSpace=wrap;html=1;" vertex="1" parent="1">
          <mxGeometry x="30" y="60" width="200" height="380" as="geometry" />
        </mxCell>
        <mxCell id="ZILnqPvVfEJ9x1n6Lq8S-2" value="&lt;div&gt;&lt;b&gt;SO_PROMOTION_ID&lt;/b&gt;&lt;/div&gt;&lt;div&gt;SALE_ORDER_ID&lt;/div&gt;&lt;div&gt;SHOP_ID&lt;/div&gt;&lt;div&gt;STAFF_ID&lt;/div&gt;&lt;div&gt;ORDER_DATE&lt;/div&gt;&lt;div&gt;PROMOTION_PROGRAM_ID&lt;/div&gt;&lt;div&gt;PROMOTION_PROGRAM_CODE&lt;/div&gt;&lt;div&gt;PRODUCT_GROUP_ID&lt;/div&gt;&lt;div&gt;GROUP_LEVEL_ID&lt;/div&gt;&lt;div&gt;PROMOTION_LEVEL&lt;/div&gt;&lt;div&gt;QUANTITY_RECEIVED&lt;/div&gt;&lt;div&gt;QUANTITY_RECEIVED_MAX&lt;/div&gt;&lt;div&gt;CREATE_DATE&lt;/div&gt;&lt;div&gt;UPDATE_DATE&lt;/div&gt;&lt;div&gt;CREATE_USER&lt;/div&gt;&lt;div&gt;UPDATE_USER&lt;/div&gt;&lt;div&gt;PROMOTION_DETAIL&lt;/div&gt;&lt;div&gt;EXCEED_OBJECT&lt;/div&gt;&lt;div&gt;EXCEED_UNIT&lt;/div&gt;&lt;div&gt;AMOUNT_RECEIVED&lt;/div&gt;&lt;div&gt;NUM_RECEIVED&lt;/div&gt;&lt;div&gt;AMOUNT_RECEIVED_MAX&lt;/div&gt;&lt;div&gt;NUM_RECEIVED_MAX&lt;/div&gt;" style="text;strokeColor=none;fillColor=none;align=left;verticalAlign=middle;spacingLeft=4;spacingRight=4;overflow=hidden;points=[[0,0.5],[1,0.5]];portConstraint=eastwest;rotatable=0;whiteSpace=wrap;html=1;" vertex="1" parent="ZILnqPvVfEJ9x1n6Lq8S-1">
          <mxGeometry y="30" width="200" height="350" as="geometry" />
        </mxCell>
        <mxCell id="ZILnqPvVfEJ9x1n6Lq8S-3" value="&lt;br&gt;&lt;table style=&quot;border-collapse:&lt;br/&gt; collapse;width:48pt&quot; width=&quot;64&quot; cellspacing=&quot;0&quot; cellpadding=&quot;0&quot; border=&quot;0&quot;&gt;&lt;tbody&gt;&lt;tr style=&quot;height:14.4pt&quot; height=&quot;19&quot;&gt;  &lt;td style=&quot;height:14.4pt;width:48pt&quot; width=&quot;64&quot; height=&quot;19&quot;&gt;SALE_ORDER_PROMOTION_DETAIL&lt;/td&gt;&lt;/tr&gt;&lt;/tbody&gt;&lt;/table&gt;" style="swimlane;fontStyle=0;childLayout=stackLayout;horizontal=1;startSize=30;horizontalStack=0;resizeParent=1;resizeParentMax=0;resizeLast=0;collapsible=1;marginBottom=0;whiteSpace=wrap;html=1;" vertex="1" parent="1">
          <mxGeometry x="450" y="60" width="220" height="380" as="geometry" />
        </mxCell>
        <mxCell id="ZILnqPvVfEJ9x1n6Lq8S-4" value="&lt;div&gt;&lt;b&gt;SO_PROMOTION_ID&lt;/b&gt;&lt;/div&gt;&lt;div&gt;SALE_ORDER_ID&lt;/div&gt;&lt;div&gt;SHOP_ID&lt;/div&gt;&lt;div&gt;STAFF_ID&lt;/div&gt;&lt;div&gt;ORDER_DATE&lt;/div&gt;&lt;div&gt;PROMOTION_PROGRAM_ID&lt;/div&gt;&lt;div&gt;PROMOTION_PROGRAM_CODE&lt;/div&gt;&lt;div&gt;PRODUCT_GROUP_ID&lt;/div&gt;&lt;div&gt;GROUP_LEVEL_ID&lt;/div&gt;&lt;div&gt;PROMOTION_LEVEL&lt;/div&gt;&lt;div&gt;QUANTITY_RECEIVED&lt;/div&gt;&lt;div&gt;QUANTITY_RECEIVED_MAX&lt;/div&gt;&lt;div&gt;CREATE_DATE&lt;/div&gt;&lt;div&gt;UPDATE_DATE&lt;/div&gt;&lt;div&gt;CREATE_USER&lt;/div&gt;&lt;div&gt;UPDATE_USER&lt;/div&gt;&lt;div&gt;PROMOTION_DETAIL&lt;/div&gt;&lt;div&gt;EXCEED_OBJECT&lt;/div&gt;&lt;div&gt;EXCEED_UNIT&lt;/div&gt;&lt;div&gt;AMOUNT_RECEIVED&lt;/div&gt;&lt;div&gt;NUM_RECEIVED&lt;/div&gt;&lt;div&gt;AMOUNT_RECEIVED_MAX&lt;/div&gt;&lt;div&gt;NUM_RECEIVED_MAX&lt;/div&gt;" style="text;strokeColor=none;fillColor=none;align=left;verticalAlign=middle;spacingLeft=4;spacingRight=4;overflow=hidden;points=[[0,0.5],[1,0.5]];portConstraint=eastwest;rotatable=0;whiteSpace=wrap;html=1;" vertex="1" parent="ZILnqPvVfEJ9x1n6Lq8S-3">
          <mxGeometry y="30" width="220" height="350" as="geometry" />
        </mxCell>
        <mxCell id="ZILnqPvVfEJ9x1n6Lq8S-404" value="&lt;table style=&quot;border-collapse:&lt;br/&gt; collapse;width:48pt&quot; width=&quot;64&quot; cellspacing=&quot;0&quot; cellpadding=&quot;0&quot; border=&quot;0&quot;&gt;&lt;tbody&gt;&lt;tr style=&quot;height:14.4pt&quot; height=&quot;19&quot;&gt;&lt;td style=&quot;height:14.4pt;width:48pt&quot; width=&quot;64&quot; height=&quot;19&quot;&gt;&lt;/td&gt;&lt;/tr&gt;&lt;/tbody&gt;&lt;/table&gt;PROMOTION_MAP_DELTA" style="swimlane;fontStyle=0;childLayout=stackLayout;horizontal=1;startSize=30;horizontalStack=0;resizeParent=1;resizeParentMax=0;resizeLast=0;collapsible=1;marginBottom=0;whiteSpace=wrap;html=1;" vertex="1" parent="1">
          <mxGeometry x="130" y="615" width="220" height="400" as="geometry" />
        </mxCell>
        <mxCell id="ZILnqPvVfEJ9x1n6Lq8S-407" style="edgeStyle=orthogonalEdgeStyle;rounded=0;orthogonalLoop=1;jettySize=auto;html=1;" edge="1" parent="ZILnqPvVfEJ9x1n6Lq8S-404" source="ZILnqPvVfEJ9x1n6Lq8S-405">
          <mxGeometry relative="1" as="geometry">
            <mxPoint x="-70" y="-175" as="targetPoint" />
          </mxGeometry>
        </mxCell>
        <mxCell id="ZILnqPvVfEJ9x1n6Lq8S-405" value="&lt;div&gt;&lt;b&gt;PROMOTION_MAP_DELTA_ID&lt;/b&gt;&lt;/div&gt;&lt;div&gt;PROMOTION_SHOP_MAP_ID&lt;/div&gt;&lt;div&gt;PROMOTION_STAFF_MAP_ID&lt;/div&gt;&lt;div&gt;PROMOTION_CUSTOMER_MAP_ID&lt;/div&gt;&lt;div&gt;QUANTITY_DELTA&lt;/div&gt;&lt;div&gt;AMOUNT_DELTA&lt;/div&gt;&lt;div&gt;NUM_DELTA&lt;/div&gt;&lt;div&gt;SOURCE&lt;/div&gt;&lt;div&gt;ACTION&lt;/div&gt;&lt;div&gt;FROM_OBJECT_ID&lt;/div&gt;&lt;div&gt;ERROR&lt;/div&gt;&lt;div&gt;ERROR_MESSAGE&lt;/div&gt;&lt;div&gt;CREATE_DATE&lt;/div&gt;&lt;div&gt;CREATE_USER&lt;/div&gt;&lt;div&gt;PROMOTION_PROGRAM_ID&lt;/div&gt;&lt;span style=&quot;border-color: var(--border-color);&quot;&gt;DISTRIBUTION_UNIT_ID&lt;/span&gt;&lt;div&gt;STAFF_ID&lt;br&gt;&lt;/div&gt;&lt;div&gt;CUSTOMER_ID&lt;/div&gt;&lt;div&gt;NUM_ORDER&lt;/div&gt;&lt;div&gt;PRODUCT_GROUP_ID&lt;/div&gt;&lt;div&gt;NUM_ORDER_GROUP&lt;/div&gt;&lt;div&gt;GROUP_LEVEL_ID&lt;/div&gt;&lt;div&gt;PROMOTION_CUS_GROUP_MAP_ID&lt;/div&gt;&lt;div&gt;TRANSACTION_ID&lt;/div&gt;&lt;div&gt;OBJECT_TYPE&lt;/div&gt;" style="text;strokeColor=none;fillColor=none;align=left;verticalAlign=middle;spacingLeft=4;spacingRight=4;overflow=hidden;points=[[0,0.5],[1,0.5]];portConstraint=eastwest;rotatable=0;whiteSpace=wrap;html=1;" vertex="1" parent="ZILnqPvVfEJ9x1n6Lq8S-404">
          <mxGeometry y="30" width="220" height="370" as="geometry" />
        </mxCell>
        <mxCell id="ZILnqPvVfEJ9x1n6Lq8S-408" value="PURCHASE_ORDER_PROMOTION_MAP" style="swimlane;fontStyle=0;childLayout=stackLayout;horizontal=1;startSize=30;horizontalStack=0;resizeParent=1;resizeParentMax=0;resizeLast=0;collapsible=1;marginBottom=0;whiteSpace=wrap;html=1;" vertex="1" parent="1">
          <mxGeometry x="1462.5" y="615" width="250" height="70" as="geometry" />
        </mxCell>
        <mxCell id="ZILnqPvVfEJ9x1n6Lq8S-410" value="&lt;div&gt;PO_ID&lt;/div&gt;&lt;div&gt;PROMOTION_PROMGRAM_ID&lt;/div&gt;" style="text;strokeColor=none;fillColor=none;align=left;verticalAlign=middle;spacingLeft=4;spacingRight=4;overflow=hidden;points=[[0,0.5],[1,0.5]];portConstraint=eastwest;rotatable=0;whiteSpace=wrap;html=1;" vertex="1" parent="ZILnqPvVfEJ9x1n6Lq8S-408">
          <mxGeometry y="30" width="250" height="40" as="geometry" />
        </mxCell>
        <mxCell id="ZILnqPvVfEJ9x1n6Lq8S-413" value="PURCHASE_ORDER_PROMOTION_DETAIL" style="swimlane;fontStyle=0;childLayout=stackLayout;horizontal=1;startSize=30;horizontalStack=0;resizeParent=1;resizeParentMax=0;resizeLast=0;collapsible=1;marginBottom=0;whiteSpace=wrap;html=1;" vertex="1" parent="1">
          <mxGeometry x="1112.5" y="615" width="310" height="130" as="geometry" />
        </mxCell>
        <mxCell id="ZILnqPvVfEJ9x1n6Lq8S-414" value="&lt;div&gt;PO_PROMOTION_DETAIL_ID&lt;/div&gt;&lt;div&gt;PO_ID&lt;/div&gt;&lt;div&gt;AMOUNT_RECEIVE&lt;span style=&quot;background-color: initial;&quot;&gt;D&lt;/span&gt;&lt;/div&gt;&lt;div&gt;&lt;div style=&quot;border-color: var(--border-color);&quot;&gt;NUM_RECEIVED&lt;/div&gt;&lt;div style=&quot;border-color: var(--border-color);&quot;&gt;AMOUNT_RECEIVED_MAX&lt;/div&gt;&lt;div style=&quot;border-color: var(--border-color);&quot;&gt;NUM_RECEIVED_MAX&lt;/div&gt;&lt;/div&gt;" style="text;strokeColor=none;fillColor=none;align=left;verticalAlign=middle;spacingLeft=4;spacingRight=4;overflow=hidden;points=[[0,0.5],[1,0.5]];portConstraint=eastwest;rotatable=0;whiteSpace=wrap;html=1;" vertex="1" parent="ZILnqPvVfEJ9x1n6Lq8S-413">
          <mxGeometry y="30" width="310" height="100" as="geometry" />
        </mxCell>
        <mxCell id="ZILnqPvVfEJ9x1n6Lq8S-415" value="PURCHASE_ORDER_PROMOTION_GIVEAWAY" style="swimlane;fontStyle=0;childLayout=stackLayout;horizontal=1;startSize=30;horizontalStack=0;resizeParent=1;resizeParentMax=0;resizeLast=0;collapsible=1;marginBottom=0;whiteSpace=wrap;html=1;" vertex="1" parent="1">
          <mxGeometry x="760" y="630" width="285" height="100" as="geometry" />
        </mxCell>
        <mxCell id="ZILnqPvVfEJ9x1n6Lq8S-416" value="&lt;div&gt;&lt;div style=&quot;border-color: var(--border-color);&quot;&gt;PO_PROMOTION_PROMOTION_GIVEAWAY_ID&lt;/div&gt;&lt;div style=&quot;border-color: var(--border-color);&quot;&gt;PO_ID&lt;/div&gt;&lt;/div&gt;&lt;div style=&quot;border-color: var(--border-color);&quot;&gt;&lt;div style=&quot;border-color: var(--border-color);&quot;&gt;QUANTITY_RECEIVED&lt;/div&gt;&lt;div style=&quot;border-color: var(--border-color);&quot;&gt;QUANTITY_RECEIVED_MAX&lt;/div&gt;&lt;/div&gt;" style="text;strokeColor=none;fillColor=none;align=left;verticalAlign=middle;spacingLeft=4;spacingRight=4;overflow=hidden;points=[[0,0.5],[1,0.5]];portConstraint=eastwest;rotatable=0;whiteSpace=wrap;html=1;" vertex="1" parent="ZILnqPvVfEJ9x1n6Lq8S-415">
          <mxGeometry y="30" width="285" height="70" as="geometry" />
        </mxCell>
        <mxCell id="ZILnqPvVfEJ9x1n6Lq8S-419" value="PURCHASE_ORDER_PROMOTION" style="swimlane;fontStyle=0;childLayout=stackLayout;horizontal=1;startSize=30;horizontalStack=0;resizeParent=1;resizeParentMax=0;resizeLast=0;collapsible=1;marginBottom=0;whiteSpace=wrap;html=1;" vertex="1" parent="1">
          <mxGeometry x="420" y="550" width="280" height="320" as="geometry" />
        </mxCell>
        <mxCell id="ZILnqPvVfEJ9x1n6Lq8S-420" value="&lt;div&gt;&lt;b&gt;PO_PROMOTION_ID&lt;/b&gt;&lt;/div&gt;&lt;div&gt;PO_ID&lt;/div&gt;&lt;div&gt;DISTRIBUTION_UNIT_ID&lt;/div&gt;&lt;div&gt;STAFF_ID&lt;/div&gt;&lt;div&gt;ORDER_DATE&lt;/div&gt;&lt;div&gt;PROMOTION_PROGRAM_ID&lt;/div&gt;&lt;div&gt;PROMOTION_PROGRAM_CODE&lt;/div&gt;&lt;div&gt;PRODUCT_GROUP_ID&lt;/div&gt;&lt;div&gt;GROUP_LEVEL_ID&lt;/div&gt;&lt;div&gt;PROMOTION_LEVEL&lt;/div&gt;&lt;div&gt;CREATE_DATE&lt;/div&gt;&lt;div&gt;UPDATE_DATE&lt;/div&gt;&lt;div&gt;CREATE_USER&lt;/div&gt;&lt;div&gt;UPDATE_USER&lt;/div&gt;&lt;div&gt;PO_PROMOTION_MAP_DETAIL_ID&lt;br&gt;&lt;/div&gt;&lt;div&gt;EXCEED_OBJECT&lt;/div&gt;&lt;div&gt;EXCEED_UNIT&lt;/div&gt;&lt;div&gt;PO_PROMOTION_AMOUNT_DETAIL_ID&lt;/div&gt;&lt;div&gt;&lt;span style=&quot;background-color: initial;&quot;&gt;PO_PROMOTION_PROMOTION_GIVEAWAY_ID&lt;/span&gt;&lt;br&gt;&lt;/div&gt;" style="text;strokeColor=none;fillColor=none;align=left;verticalAlign=middle;spacingLeft=4;spacingRight=4;overflow=hidden;points=[[0,0.5],[1,0.5]];portConstraint=eastwest;rotatable=0;whiteSpace=wrap;html=1;" vertex="1" parent="ZILnqPvVfEJ9x1n6Lq8S-419">
          <mxGeometry y="30" width="280" height="290" as="geometry" />
        </mxCell>
        <mxCell id="ZILnqPvVfEJ9x1n6Lq8S-421" value="&lt;br&gt;&lt;table style=&quot;border-collapse:&lt;br/&gt; collapse;width:48pt&quot; width=&quot;64&quot; cellspacing=&quot;0&quot; cellpadding=&quot;0&quot; border=&quot;0&quot;&gt;&lt;tbody&gt;&lt;tr style=&quot;height:14.4pt&quot; height=&quot;19&quot;&gt;  &lt;td style=&quot;height:14.4pt;width:48pt&quot; width=&quot;64&quot; height=&quot;19&quot;&gt;PROMOTION_SHOP_MAP&lt;/td&gt;&lt;/tr&gt;&lt;/tbody&gt;&lt;/table&gt;" style="swimlane;fontStyle=0;childLayout=stackLayout;horizontal=1;startSize=30;horizontalStack=0;resizeParent=1;resizeParentMax=0;resizeLast=0;collapsible=1;marginBottom=0;whiteSpace=wrap;html=1;" vertex="1" parent="1">
          <mxGeometry x="150" y="1110" width="200" height="410" as="geometry" />
        </mxCell>
        <mxCell id="ZILnqPvVfEJ9x1n6Lq8S-422" value="&lt;div&gt;PROMOTION_SHOP_MAP_ID&lt;/div&gt;&lt;div&gt;PROMOTION_PROGRAM_ID&lt;/div&gt;&lt;div&gt;SHOP_ID&lt;/div&gt;&lt;div&gt;QUANTITY_MAX&lt;/div&gt;&lt;div&gt;QUANTITY_RECEIVED&lt;/div&gt;&lt;div&gt;STATUS&lt;/div&gt;&lt;div&gt;CREATE_DATE&lt;/div&gt;&lt;div&gt;CREATE_USER&lt;/div&gt;&lt;div&gt;UPDATE_DATE&lt;/div&gt;&lt;div&gt;UPDATE_USER&lt;/div&gt;&lt;div&gt;QUANTITY_CUSTOMER&lt;/div&gt;&lt;div&gt;SYN_ACTION&lt;/div&gt;&lt;div&gt;FROM_DATE&lt;/div&gt;&lt;div&gt;TO_DATE&lt;/div&gt;&lt;div&gt;IS_QUANTITY_MAX_EDIT&lt;/div&gt;&lt;div&gt;AMOUNT_MAX&lt;/div&gt;&lt;div&gt;AMOUNT_RECEIVED&lt;/div&gt;&lt;div&gt;NUM_MAX&lt;/div&gt;&lt;div&gt;NUM_RECEIVED&lt;/div&gt;&lt;div&gt;QUANTITY_RECEIVED_TOTAL&lt;/div&gt;&lt;div&gt;AMOUNT_RECEIVED_TOTAL&lt;/div&gt;&lt;div&gt;NUM_RECEIVED_TOTAL&lt;/div&gt;&lt;div&gt;NUM_ORDER_RECEIVED&lt;/div&gt;&lt;div&gt;NUM_ORDER_RECEIVED_TOTAL&lt;/div&gt;&lt;div&gt;VANSALE_ORDER&lt;/div&gt;" style="text;strokeColor=none;fillColor=none;align=left;verticalAlign=middle;spacingLeft=4;spacingRight=4;overflow=hidden;points=[[0,0.5],[1,0.5]];portConstraint=eastwest;rotatable=0;whiteSpace=wrap;html=1;" vertex="1" parent="ZILnqPvVfEJ9x1n6Lq8S-421">
          <mxGeometry y="30" width="200" height="380" as="geometry" />
        </mxCell>
        <mxCell id="ZILnqPvVfEJ9x1n6Lq8S-423" value="&lt;br&gt;&lt;table style=&quot;border-collapse:&lt;br/&gt; collapse;width:48pt&quot; width=&quot;64&quot; cellspacing=&quot;0&quot; cellpadding=&quot;0&quot; border=&quot;0&quot;&gt;&lt;tbody&gt;&lt;tr style=&quot;height:14.4pt&quot; height=&quot;19&quot;&gt;  &lt;td style=&quot;height:14.4pt;width:48pt&quot; width=&quot;64&quot; height=&quot;19&quot;&gt;PROMOTION_STAFF_MAP&lt;/td&gt;&lt;/tr&gt;&lt;/tbody&gt;&lt;/table&gt;" style="swimlane;fontStyle=0;childLayout=stackLayout;horizontal=1;startSize=30;horizontalStack=0;resizeParent=1;resizeParentMax=0;resizeLast=0;collapsible=1;marginBottom=0;whiteSpace=wrap;html=1;" vertex="1" parent="1">
          <mxGeometry x="460" y="1260" width="200" height="350" as="geometry" />
        </mxCell>
        <mxCell id="ZILnqPvVfEJ9x1n6Lq8S-424" value="&lt;div&gt;PROMOTION_STAFF_MAP_ID&lt;/div&gt;&lt;div&gt;PROMOTION_SHOP_MAP_ID&lt;/div&gt;&lt;div&gt;SHOP_ID&lt;/div&gt;&lt;div&gt;STAFF_ID&lt;/div&gt;&lt;div&gt;QUANTITY_MAX&lt;/div&gt;&lt;div&gt;QUANTITY_RECEIVED&lt;/div&gt;&lt;div&gt;STATUS&lt;/div&gt;&lt;div&gt;CREATE_DATE&lt;/div&gt;&lt;div&gt;CREATE_USER&lt;/div&gt;&lt;div&gt;UPDATE_DATE&lt;/div&gt;&lt;div&gt;UPDATE_USER&lt;/div&gt;&lt;div&gt;AMOUNT_MAX&lt;/div&gt;&lt;div&gt;AMOUNT_RECEIVED&lt;/div&gt;&lt;div&gt;NUM_MAX&lt;/div&gt;&lt;div&gt;NUM_RECEIVED&lt;/div&gt;&lt;div&gt;QUANTITY_RECEIVED_TOTAL&lt;/div&gt;&lt;div&gt;AMOUNT_RECEIVED_TOTAL&lt;/div&gt;&lt;div&gt;NUM_RECEIVED_TOTAL&lt;/div&gt;&lt;div&gt;NUM_ORDER_RECEIVED&lt;/div&gt;&lt;div&gt;NUM_ORDER_RECEIVED_TOTAL&lt;/div&gt;&lt;div&gt;VANSALE_ORDER&lt;/div&gt;" style="text;strokeColor=none;fillColor=none;align=left;verticalAlign=middle;spacingLeft=4;spacingRight=4;overflow=hidden;points=[[0,0.5],[1,0.5]];portConstraint=eastwest;rotatable=0;whiteSpace=wrap;html=1;" vertex="1" parent="ZILnqPvVfEJ9x1n6Lq8S-423">
          <mxGeometry y="30" width="200" height="320" as="geometry" />
        </mxCell>
        <mxCell id="ZILnqPvVfEJ9x1n6Lq8S-425" value="&lt;br&gt;&lt;table style=&quot;border-collapse:&lt;br/&gt; collapse;width:48pt&quot; width=&quot;64&quot; cellspacing=&quot;0&quot; cellpadding=&quot;0&quot; border=&quot;0&quot;&gt;&lt;tbody&gt;&lt;tr style=&quot;height:14.4pt&quot; height=&quot;19&quot;&gt;  &lt;td style=&quot;height:14.4pt;width:48pt&quot; width=&quot;64&quot; height=&quot;19&quot;&gt;PROMOTION_CUSTOMER_MAP&lt;/td&gt;&lt;/tr&gt;&lt;/tbody&gt;&lt;/table&gt;" style="swimlane;fontStyle=0;childLayout=stackLayout;horizontal=1;startSize=30;horizontalStack=0;resizeParent=1;resizeParentMax=0;resizeLast=0;collapsible=1;marginBottom=0;whiteSpace=wrap;html=1;" vertex="1" parent="1">
          <mxGeometry x="775" y="1030" width="200" height="380" as="geometry" />
        </mxCell>
        <mxCell id="ZILnqPvVfEJ9x1n6Lq8S-426" value="&lt;div&gt;PROMOTION_CUSTOMER_MAP_ID&lt;/div&gt;&lt;div&gt;PROMOTION_SHOP_MAP_ID&lt;/div&gt;&lt;div&gt;SHOP_ID&lt;/div&gt;&lt;div&gt;CUSTOMER_ID&lt;/div&gt;&lt;div&gt;QUANTITY_MAX&lt;/div&gt;&lt;div&gt;QUANTITY_RECEIVED&lt;/div&gt;&lt;div&gt;STATUS&lt;/div&gt;&lt;div&gt;CREATE_DATE&lt;/div&gt;&lt;div&gt;CREATE_USER&lt;/div&gt;&lt;div&gt;UPDATE_DATE&lt;/div&gt;&lt;div&gt;UPDATE_USER&lt;/div&gt;&lt;div&gt;AMOUNT_MAX&lt;/div&gt;&lt;div&gt;AMOUNT_RECEIVED&lt;/div&gt;&lt;div&gt;NUM_MAX&lt;/div&gt;&lt;div&gt;NUM_RECEIVED&lt;/div&gt;&lt;div&gt;QUANTITY_RECEIVED_TOTAL&lt;/div&gt;&lt;div&gt;AMOUNT_RECEIVED_TOTAL&lt;/div&gt;&lt;div&gt;NUM_RECEIVED_TOTAL&lt;/div&gt;&lt;div&gt;NUM_ORDER_RECEIVED&lt;/div&gt;&lt;div&gt;NUM_ORDER_RECEIVED_TOTAL&lt;/div&gt;&lt;div&gt;VIRTUAL_FLAG&lt;/div&gt;&lt;div&gt;EXCEPT_SALE_ORDER_ID&lt;/div&gt;&lt;div&gt;VANSALE_ORDER&lt;/div&gt;" style="text;strokeColor=none;fillColor=none;align=left;verticalAlign=middle;spacingLeft=4;spacingRight=4;overflow=hidden;points=[[0,0.5],[1,0.5]];portConstraint=eastwest;rotatable=0;whiteSpace=wrap;html=1;" vertex="1" parent="ZILnqPvVfEJ9x1n6Lq8S-425">
          <mxGeometry y="30" width="200" height="350" as="geometry" />
        </mxCell>
        <mxCell id="ZILnqPvVfEJ9x1n6Lq8S-427" value="" style="endArrow=classic;html=1;rounded=0;exitX=0.004;exitY=0.279;exitDx=0;exitDy=0;exitPerimeter=0;entryX=0.953;entryY=1.019;entryDx=0;entryDy=0;entryPerimeter=0;" edge="1" parent="1" source="ZILnqPvVfEJ9x1n6Lq8S-424" target="ZILnqPvVfEJ9x1n6Lq8S-405">
          <mxGeometry width="50" height="50" relative="1" as="geometry">
            <mxPoint x="670" y="730" as="sourcePoint" />
            <mxPoint x="340" y="1080" as="targetPoint" />
          </mxGeometry>
        </mxCell>
        <mxCell id="ZILnqPvVfEJ9x1n6Lq8S-428" value="" style="endArrow=classic;html=1;rounded=0;exitX=0.002;exitY=0.131;exitDx=0;exitDy=0;exitPerimeter=0;entryX=1.011;entryY=0.829;entryDx=0;entryDy=0;entryPerimeter=0;" edge="1" parent="1" source="ZILnqPvVfEJ9x1n6Lq8S-426" target="ZILnqPvVfEJ9x1n6Lq8S-405">
          <mxGeometry width="50" height="50" relative="1" as="geometry">
            <mxPoint x="471" y="1389" as="sourcePoint" />
            <mxPoint x="340" y="1290" as="targetPoint" />
          </mxGeometry>
        </mxCell>
        <mxCell id="ZILnqPvVfEJ9x1n6Lq8S-430" value="" style="endArrow=classic;html=1;rounded=0;entryX=1;entryY=0.5;entryDx=0;entryDy=0;exitX=0;exitY=0.5;exitDx=0;exitDy=0;" edge="1" parent="1" source="ZILnqPvVfEJ9x1n6Lq8S-4" target="ZILnqPvVfEJ9x1n6Lq8S-2">
          <mxGeometry width="50" height="50" relative="1" as="geometry">
            <mxPoint x="670" y="530" as="sourcePoint" />
            <mxPoint x="720" y="480" as="targetPoint" />
          </mxGeometry>
        </mxCell>
        <mxCell id="ZILnqPvVfEJ9x1n6Lq8S-431" value="PURCHASE_ORDER" style="swimlane;fontStyle=0;childLayout=stackLayout;horizontal=1;startSize=30;horizontalStack=0;resizeParent=1;resizeParentMax=0;resizeLast=0;collapsible=1;marginBottom=0;whiteSpace=wrap;html=1;" vertex="1" parent="1">
          <mxGeometry x="860" y="240" width="220" height="90" as="geometry" />
        </mxCell>
        <mxCell id="ZILnqPvVfEJ9x1n6Lq8S-432" value="&lt;div&gt;&lt;div&gt;PO_ID&lt;/div&gt;&lt;/div&gt;&lt;div&gt;...&lt;/div&gt;" style="text;strokeColor=none;fillColor=none;align=left;verticalAlign=middle;spacingLeft=4;spacingRight=4;overflow=hidden;points=[[0,0.5],[1,0.5]];portConstraint=eastwest;rotatable=0;whiteSpace=wrap;html=1;" vertex="1" parent="ZILnqPvVfEJ9x1n6Lq8S-431">
          <mxGeometry y="30" width="220" height="60" as="geometry" />
        </mxCell>
        <mxCell id="ZILnqPvVfEJ9x1n6Lq8S-433" style="edgeStyle=orthogonalEdgeStyle;rounded=0;orthogonalLoop=1;jettySize=auto;html=1;exitX=0.5;exitY=0;exitDx=0;exitDy=0;" edge="1" parent="1" source="ZILnqPvVfEJ9x1n6Lq8S-413">
          <mxGeometry relative="1" as="geometry">
            <mxPoint x="1040" y="330" as="targetPoint" />
            <mxPoint x="1310" y="580" as="sourcePoint" />
            <Array as="points">
              <mxPoint x="1268" y="560" />
              <mxPoint x="1140" y="560" />
              <mxPoint x="1140" y="480" />
              <mxPoint x="1046" y="480" />
              <mxPoint x="1046" y="350" />
              <mxPoint x="1040" y="350" />
            </Array>
          </mxGeometry>
        </mxCell>
        <mxCell id="ZILnqPvVfEJ9x1n6Lq8S-434" value="" style="endArrow=classic;html=1;rounded=0;exitX=0.623;exitY=0.01;exitDx=0;exitDy=0;exitPerimeter=0;" edge="1" parent="1" source="ZILnqPvVfEJ9x1n6Lq8S-415">
          <mxGeometry width="50" height="50" relative="1" as="geometry">
            <mxPoint x="630" y="530" as="sourcePoint" />
            <mxPoint x="950" y="330" as="targetPoint" />
          </mxGeometry>
        </mxCell>
        <mxCell id="ZILnqPvVfEJ9x1n6Lq8S-436" value="" style="endArrow=classic;html=1;rounded=0;entryX=-0.015;entryY=0.3;entryDx=0;entryDy=0;entryPerimeter=0;exitX=0.75;exitY=0;exitDx=0;exitDy=0;" edge="1" parent="1" source="ZILnqPvVfEJ9x1n6Lq8S-419" target="ZILnqPvVfEJ9x1n6Lq8S-432">
          <mxGeometry width="50" height="50" relative="1" as="geometry">
            <mxPoint x="938" y="810" as="sourcePoint" />
            <mxPoint x="926" y="725" as="targetPoint" />
          </mxGeometry>
        </mxCell>
        <mxCell id="ZILnqPvVfEJ9x1n6Lq8S-439" value="" style="endArrow=classic;html=1;rounded=0;entryX=0.941;entryY=1.017;entryDx=0;entryDy=0;entryPerimeter=0;exitX=0.25;exitY=0;exitDx=0;exitDy=0;" edge="1" parent="1" source="ZILnqPvVfEJ9x1n6Lq8S-408" target="ZILnqPvVfEJ9x1n6Lq8S-432">
          <mxGeometry width="50" height="50" relative="1" as="geometry">
            <mxPoint x="938" y="810" as="sourcePoint" />
            <mxPoint x="926" y="725" as="targetPoint" />
          </mxGeometry>
        </mxCell>
        <mxCell id="ZILnqPvVfEJ9x1n6Lq8S-443" value="" style="endArrow=classic;html=1;rounded=0;exitX=0.5;exitY=0;exitDx=0;exitDy=0;entryX=0.458;entryY=1.024;entryDx=0;entryDy=0;entryPerimeter=0;" edge="1" parent="1" source="ZILnqPvVfEJ9x1n6Lq8S-421" target="ZILnqPvVfEJ9x1n6Lq8S-405">
          <mxGeometry width="50" height="50" relative="1" as="geometry">
            <mxPoint x="481" y="1399" as="sourcePoint" />
            <mxPoint x="370" y="1350" as="targetPoint" />
          </mxGeometry>
        </mxCell>
      </root>
    </mxGraphModel>
  </diagram>
</mxfile>
